<svg xmlns="http://www.w3.org/2000/svg" xmlns:xlink="http://www.w3.org/1999/xlink" width="150" zoomAndPan="magnify" viewBox="0 0 112.5 112.499997" height="150" preserveAspectRatio="xMidYMid meet" version="1.0"><defs><clipPath id="3ce45757a5"><path d="M 0 0 L 112.003906 0 L 112.003906 112.003906 L 0 112.003906 Z M 0 0 " clip-rule="nonzero"/></clipPath></defs><g clip-path="url(#3ce45757a5)"><path fill="#37aee2" d="M 16.875 0 L 95.625 0 C 96.175781 0 96.730469 0.0273438 97.277344 0.0820312 C 97.828125 0.136719 98.375 0.214844 98.917969 0.324219 C 99.460938 0.433594 99.996094 0.566406 100.523438 0.726562 C 101.050781 0.886719 101.570312 1.074219 102.082031 1.285156 C 102.59375 1.496094 103.09375 1.730469 103.578125 1.992188 C 104.066406 2.253906 104.539062 2.535156 105 2.84375 C 105.460938 3.152344 105.902344 3.480469 106.332031 3.832031 C 106.757812 4.179688 107.167969 4.550781 107.558594 4.941406 C 107.949219 5.332031 108.320312 5.742188 108.667969 6.167969 C 109.019531 6.597656 109.347656 7.039062 109.65625 7.5 C 109.964844 7.960938 110.246094 8.433594 110.507812 8.921875 C 110.769531 9.40625 111.003906 9.90625 111.214844 10.417969 C 111.425781 10.929688 111.613281 11.449219 111.773438 11.976562 C 111.933594 12.503906 112.066406 13.039062 112.175781 13.582031 C 112.285156 14.125 112.363281 14.671875 112.417969 15.222656 C 112.472656 15.769531 112.5 16.324219 112.5 16.875 L 112.5 95.625 C 112.5 96.175781 112.472656 96.730469 112.417969 97.277344 C 112.363281 97.828125 112.285156 98.375 112.175781 98.917969 C 112.066406 99.460938 111.933594 99.996094 111.773438 100.523438 C 111.613281 101.050781 111.425781 101.570312 111.214844 102.082031 C 111.003906 102.59375 110.769531 103.09375 110.507812 103.578125 C 110.246094 104.066406 109.964844 104.539062 109.65625 105 C 109.347656 105.460938 109.019531 105.902344 108.667969 106.332031 C 108.320312 106.757812 107.949219 107.167969 107.558594 107.558594 C 107.167969 107.949219 106.757812 108.320312 106.332031 108.667969 C 105.902344 109.019531 105.460938 109.347656 105 109.65625 C 104.539062 109.964844 104.066406 110.246094 103.578125 110.507812 C 103.09375 110.769531 102.59375 111.003906 102.082031 111.214844 C 101.570312 111.425781 101.050781 111.613281 100.523438 111.773438 C 99.996094 111.933594 99.460938 112.066406 98.917969 112.175781 C 98.375 112.285156 97.828125 112.363281 97.277344 112.417969 C 96.730469 112.472656 96.175781 112.5 95.625 112.5 L 16.875 112.5 C 16.324219 112.5 15.769531 112.472656 15.222656 112.417969 C 14.671875 112.363281 14.125 112.285156 13.582031 112.175781 C 13.039062 112.066406 12.503906 111.933594 11.976562 111.773438 C 11.449219 111.613281 10.929688 111.425781 10.417969 111.214844 C 9.90625 111.003906 9.40625 110.769531 8.921875 110.507812 C 8.433594 110.246094 7.960938 109.964844 7.5 109.65625 C 7.039062 109.347656 6.597656 109.019531 6.167969 108.667969 C 5.742188 108.320312 5.332031 107.949219 4.941406 107.558594 C 4.550781 107.167969 4.179688 106.757812 3.832031 106.332031 C 3.480469 105.902344 3.152344 105.460938 2.84375 105 C 2.535156 104.539062 2.253906 104.066406 1.992188 103.578125 C 1.730469 103.09375 1.496094 102.59375 1.285156 102.082031 C 1.074219 101.570312 0.886719 101.050781 0.726562 100.523438 C 0.566406 99.996094 0.433594 99.460938 0.324219 98.917969 C 0.214844 98.375 0.136719 97.828125 0.0820312 97.277344 C 0.0273438 96.730469 0 96.175781 0 95.625 L 0 16.875 C 0 16.324219 0.0273438 15.769531 0.0820312 15.222656 C 0.136719 14.671875 0.214844 14.125 0.324219 13.582031 C 0.433594 13.039062 0.566406 12.503906 0.726562 11.976562 C 0.886719 11.449219 1.074219 10.929688 1.285156 10.417969 C 1.496094 9.90625 1.730469 9.40625 1.992188 8.921875 C 2.253906 8.433594 2.535156 7.960938 2.84375 7.5 C 3.152344 7.039062 3.480469 6.597656 3.832031 6.167969 C 4.179688 5.742188 4.550781 5.332031 4.941406 4.941406 C 5.332031 4.550781 5.742188 4.179688 6.167969 3.832031 C 6.597656 3.480469 7.039062 3.152344 7.5 2.84375 C 7.960938 2.535156 8.433594 2.253906 8.921875 1.992188 C 9.40625 1.730469 9.90625 1.496094 10.417969 1.285156 C 10.929688 1.074219 11.449219 0.886719 11.976562 0.726562 C 12.503906 0.566406 13.039062 0.433594 13.582031 0.324219 C 14.125 0.214844 14.671875 0.136719 15.222656 0.0820312 C 15.769531 0.0273438 16.324219 0 16.875 0 Z M 16.875 0 " fill-opacity="1" fill-rule="nonzero"/></g><path fill="#c8daea" d="M 43.726562 88.769531 C 41.308594 88.769531 41.527344 87.890625 40.867188 85.691406 L 33.835938 62.621094 L 87.671875 30.980469 " fill-opacity="1" fill-rule="nonzero"/><path fill="#a9c9dd" d="M 43.726562 88.769531 C 45.261719 88.769531 46.140625 87.890625 47.242188 87.011719 L 57.128906 77.5625 L 44.824219 70.09375 " fill-opacity="1" fill-rule="nonzero"/><path fill="#f6fbfe" d="M 44.824219 70.09375 L 74.488281 91.84375 C 77.5625 93.824219 80.199219 92.722656 81.078125 88.769531 L 93.164062 32.078125 C 94.261719 27.246094 91.1875 25.046875 87.890625 26.585938 L 17.359375 53.832031 C 12.746094 55.589844 12.746094 58.445312 16.480469 59.546875 L 34.714844 65.257812 L 76.464844 38.671875 C 78.441406 37.574219 80.199219 38.011719 78.882812 39.550781 " fill-opacity="1" fill-rule="nonzero"/></svg>