<svg xmlns="http://www.w3.org/2000/svg" xmlns:xlink="http://www.w3.org/1999/xlink" width="150" zoomAndPan="magnify" viewBox="0 0 112.5 112.499997" height="150" preserveAspectRatio="xMidYMid meet" version="1.0"><defs><clipPath id="7a70d6df51"><path d="M 0 0 L 112.003906 0 L 112.003906 112.003906 L 0 112.003906 Z M 0 0 " clip-rule="nonzero"/></clipPath></defs><g clip-path="url(#7a70d6df51)"><path fill="#e52d27" d="M 112.5 95.402344 C 112.5 104.832031 104.832031 112.5 95.402344 112.5 L 17.097656 112.5 C 7.667969 112.5 0 104.832031 0 95.402344 L 0 17.097656 C 0 7.667969 7.667969 0 17.097656 0 L 95.402344 0 C 104.832031 0 112.5 7.667969 112.5 17.097656 Z M 112.5 95.402344 " fill-opacity="1" fill-rule="nonzero"/></g><path fill="#ffffff" d="M 96.125 57.140625 C 96.125 63.359375 96.125 69.953125 94.738281 75.976562 C 93.761719 80.222656 90.296875 83.332031 86.109375 83.804688 C 76.230469 84.898438 66.214844 84.917969 56.261719 84.898438 C 46.285156 84.898438 36.308594 84.898438 26.410156 83.804688 C 22.242188 83.332031 18.761719 80.222656 17.78125 75.976562 C 16.394531 69.953125 16.394531 63.359375 16.394531 57.140625 C 16.394531 50.917969 16.414062 44.328125 17.78125 38.300781 C 18.761719 34.058594 22.222656 30.945312 26.410156 30.476562 C 36.308594 29.363281 46.304688 29.363281 56.261719 29.363281 C 66.214844 29.363281 76.210938 29.363281 86.109375 30.476562 C 90.277344 30.945312 93.761719 34.058594 94.738281 38.300781 C 96.125 44.328125 96.125 50.917969 96.125 57.140625 Z M 96.125 57.140625 " fill-opacity="1" fill-rule="nonzero"/><path fill="#e52d27" d="M 47.867188 42.3125 L 47.867188 72.105469 L 71.007812 57.199219 Z M 47.867188 42.3125 " fill-opacity="1" fill-rule="nonzero"/></svg>